<svg width="14" height="46" viewBox="0 0 14 46" fill="none" xmlns="http://www.w3.org/2000/svg">
<path d="M7.0001 12.1999C4.01776 12.1999 1.6001 9.78224 1.6001 6.7999C1.6001 3.81756 4.01776 1.3999 7.0001 1.3999C9.98244 1.3999 12.4001 3.81756 12.4001 6.7999C12.4001 9.78224 9.98244 12.1999 7.0001 12.1999Z" stroke="black" stroke-width="2"/>
<path d="M7.0001 28.3999C4.01776 28.3999 1.6001 25.9822 1.6001 22.9999C1.6001 20.0176 4.01776 17.5999 7.0001 17.5999C9.98244 17.5999 12.4001 20.0176 12.4001 22.9999C12.4001 25.9822 9.98244 28.3999 7.0001 28.3999Z" stroke="black" stroke-width="2"/>
<path d="M7.0001 44.5999C4.01776 44.5999 1.6001 42.1822 1.6001 39.1999C1.6001 36.2176 4.01776 33.7999 7.0001 33.7999C9.98244 33.7999 12.4001 36.2176 12.4001 39.1999C12.4001 42.1822 9.98244 44.5999 7.0001 44.5999Z" stroke="black" stroke-width="2"/>
</svg>
